ffmpeg started on 2025-06-07 at 15:50:13
Report written to "D:\Convert\FFMetrics\reports\ssim_report-6.txt"
Log level: 32
Command line:
ffmpeg -hide_banner -nostdin -i "G:\\\xc0\xed\xe8\xec\xe5\\\xce\xed\xe3\xee\xe8\xed\xe3\xe8\\!_36_\xce\xf1\xe5\xed\xfc_2024\\DreamCast\\\xd1\xee\xe1\xeb\xe0\xe7\xed 2,5-\xec\xe5\xf0\xed\xee\xe3\xee \xe8\xe7\xec\xe5\xf0\xe5\xed\xe8\xff\\[DC] 2-5 Jigen no Ririsa - 23_Telegram_HEVC.mkv" -i "G:\\\xc0\xed\xe8\xec\xe5\\\xce\xed\xe3\xee\xe8\xed\xe3\xe8\\!_36_\xce\xf1\xe5\xed\xfc_2024\\DreamCast\\\xd1\xee\xe1\xeb\xe0\xe7\xed 2,5-\xec\xe5\xf0\xed\xee\xe3\xee \xe8\xe7\xec\xe5\xf0\xe5\xed\xe8\xff\\[DC] 2-5 Jigen no Ririsa - 23_Telegram.mp4" -lavfi "[0:v]settb=AVTB,setpts=PTS-STARTPTS,format=pix_fmts=yuv420p10,fps=24/1,scale=1920:1080:flags=bicubic[main];[1:v]settb=AVTB,setpts=PTS-STARTPTS,format=pix_fmts=yuv420p,fps=24/1,scale=1920:1080:flags=bicubic[ref];[main][ref]ssim=eof_action=endall:stats_file='D\\:/Convert/FFMetrics/logs/ssim_logfile-6.txt'" -f null -
Input #0, matroska,webm, from 'G:\Аниме\Онгоинги\!_36_Осень_2024\DreamCast\Соблазн 2,5-мерного измерения\[DC] 2-5 Jigen no Ririsa - 23_Telegram_HEVC.mkv':
  Metadata:
    COMPATIBLE_BRANDS: isomiso2avc1mp41
    MAJOR_BRAND     : isom
    MINOR_VERSION   : 512
    ENCODER         : Lavf61.7.100
  Duration: 00:24:09.13, start: -0.021000, bitrate: 1100 kb/s
  Stream #0:0: Video: hevc (Main 10), yuv420p10le(tv, bt709, progressive), 1920x1080 [SAR 1:1 DAR 16:9], 24 fps, 24 tbr, 1k tbn (default)
      Metadata:
        HANDLER_NAME    : VideoHandler
        VENDOR_ID       : [0][0][0][0]
        ENCODER         : Lavc61.19.100 libx265
        BPS             : 904053
        DURATION        : 00:24:08.999666666
        NUMBER_OF_FRAMES: 34776
        NUMBER_OF_BYTES : 163746504
        _STATISTICS_WRITING_APP: mkvpropedit v66.0.0 ('Josie') 64-bit
        _STATISTICS_WRITING_DATE_UTC: 2025-06-04 13:50:57
        _STATISTICS_TAGS: BPS DURATION NUMBER_OF_FRAMES NUMBER_OF_BYTES
  Stream #0:1: Audio: aac (LC), 48000 Hz, stereo, fltp (default)
      Metadata:
        HANDLER_NAME    : SoundHandler
        VENDOR_ID       : [0][0][0][0]
        ENCODER         : Lavc61.19.100 aac
        BPS             : 192950
        DURATION        : 00:24:09.130000000
        NUMBER_OF_FRAMES: 67929
        NUMBER_OF_BYTES : 34951347
        _STATISTICS_WRITING_APP: mkvpropedit v66.0.0 ('Josie') 64-bit
        _STATISTICS_WRITING_DATE_UTC: 2025-06-04 13:50:57
        _STATISTICS_TAGS: BPS DURATION NUMBER_OF_FRAMES NUMBER_OF_BYTES
Input #1, mov,mp4,m4a,3gp,3g2,mj2, from 'G:\Аниме\Онгоинги\!_36_Осень_2024\DreamCast\Соблазн 2,5-мерного измерения\[DC] 2-5 Jigen no Ririsa - 23_Telegram.mp4':
  Metadata:
    major_brand     : isom
    minor_version   : 512
    compatible_brands: isomiso2avc1mp41
    encoder         : Lavf61.1.100
  Duration: 00:24:09.07, start: 0.000000, bitrate: 3847 kb/s
  Stream #1:0[0x1](und): Video: h264 (High) (avc1 / 0x31637661), yuv420p(tv, bt709, progressive), 1920x1080 [SAR 1:1 DAR 16:9], 3700 kb/s, 24 fps, 24 tbr, 12288 tbn (default)
      Metadata:
        handler_name    : VideoHandler
        vendor_id       : [0][0][0][0]
        encoder         : Lavc61.3.100 h264_qsv
  Stream #1:1[0x2](und): Audio: aac (HE-AACv2) (mp4a / 0x6134706D), 48000 Hz, stereo, fltp, 144 kb/s (default)
      Metadata:
        handler_name    : SoundHandler
        vendor_id       : [0][0][0][0]
Stream mapping:
  Stream #0:0 (hevc) -> settb:default
  Stream #1:0 (h264) -> settb:default
  ssim:default -> Stream #0:0 (wrapped_avframe)
  Stream #0:1 -> #0:1 (aac (native) -> pcm_s16le (native))
Output #0, null, to 'pipe:':
  Metadata:
    COMPATIBLE_BRANDS: isomiso2avc1mp41
    MAJOR_BRAND     : isom
    MINOR_VERSION   : 512
    encoder         : Lavf61.7.100
  Stream #0:0: Video: wrapped_avframe, yuv420p10le(tv, bt709, progressive), 1920x1080 [SAR 1:1 DAR 16:9], q=2-31, 200 kb/s, 24 fps, 24 tbn
      Metadata:
        encoder         : Lavc61.19.100 wrapped_avframe
  Stream #0:1: Audio: pcm_s16le, 48000 Hz, stereo, s16, 1536 kb/s (default)
      Metadata:
        HANDLER_NAME    : SoundHandler
        VENDOR_ID       : [0][0][0][0]
        _STATISTICS_TAGS: BPS DURATION NUMBER_OF_FRAMES NUMBER_OF_BYTES
        BPS             : 192950
        DURATION        : 00:24:09.130000000
        NUMBER_OF_FRAMES: 67929
        NUMBER_OF_BYTES : 34951347
        _STATISTICS_WRITING_APP: mkvpropedit v66.0.0 ('Josie') 64-bit
        _STATISTICS_WRITING_DATE_UTC: 2025-06-04 13:50:57
        encoder         : Lavc61.19.100 pcm_s16le
frame=  186 fps=0.0 q=-0.0 size=N/A time=00:00:07.75 bitrate=N/A speed=15.2x    frame=  428 fps=414 q=-0.0 size=N/A time=00:00:17.83 bitrate=N/A speed=17.3x    frame=  647 fps=419 q=-0.0 size=N/A time=00:00:26.95 bitrate=N/A speed=17.5x    frame=  879 fps=426 q=-0.0 size=N/A time=00:00:36.62 bitrate=N/A speed=17.7x    frame= 1126 fps=437 q=-0.0 size=N/A time=00:00:46.91 bitrate=N/A speed=18.2x    frame= 1396 fps=450 q=-0.0 size=N/A time=00:00:58.16 bitrate=N/A speed=18.8x    frame= 1620 fps=449 q=-0.0 size=N/A time=00:01:07.50 bitrate=N/A speed=18.7x    frame= 1857 fps=451 q=-0.0 size=N/A time=00:01:17.37 bitrate=N/A speed=18.8x    frame= 2111 fps=454 q=-0.0 size=N/A time=00:01:27.95 bitrate=N/A speed=18.9x    frame= 2352 fps=456 q=-0.0 size=N/A time=00:01:38.00 bitrate=N/A speed=  19x    frame= 2607 fps=459 q=-0.0 size=N/A time=00:01:48.62 bitrate=N/A speed=19.1x    frame= 2838 fps=458 q=-0.0 size=N/A time=00:01:58.25 bitrate=N/A speed=19.1x    frame= 3053 fps=456 q=-0.0 size=N/A time=00:02:07.20 bitrate=N/A speed=  19x    frame= 3270 fps=452 q=-0.0 size=N/A time=00:02:16.25 bitrate=N/A speed=18.9x    frame= 3502 fps=453 q=-0.0 size=N/A time=00:02:25.91 bitrate=N/A speed=18.9x    frame= 3742 fps=454 q=-0.0 size=N/A time=00:02:35.91 bitrate=N/A speed=18.9x    frame= 3990 fps=455 q=-0.0 size=N/A time=00:02:46.25 bitrate=N/A speed=  19x    frame= 4218 fps=454 q=-0.0 size=N/A time=00:02:55.75 bitrate=N/A speed=18.9x    frame= 4373 fps=447 q=-0.0 size=N/A time=00:03:02.20 bitrate=N/A speed=18.6x    frame= 4562 fps=442 q=-0.0 size=N/A time=00:03:10.08 bitrate=N/A speed=18.4x    frame= 4785 fps=442 q=-0.0 size=N/A time=00:03:19.37 bitrate=N/A speed=18.4x    frame= 5000 fps=441 q=-0.0 size=N/A time=00:03:28.33 bitrate=N/A speed=18.4x    frame= 5215 fps=440 q=-0.0 size=N/A time=00:03:37.29 bitrate=N/A speed=18.3x    frame= 5477 fps=442 q=-0.0 size=N/A time=00:03:48.20 bitrate=N/A speed=18.4x    frame= 5716 fps=443 q=-0.0 size=N/A time=00:03:58.16 bitrate=N/A speed=18.5x    frame= 5963 fps=445 q=-0.0 size=N/A time=00:04:08.45 bitrate=N/A speed=18.5x    frame= 6231 fps=447 q=-0.0 size=N/A time=00:04:19.62 bitrate=N/A speed=18.6x    frame= 6496 fps=450 q=-0.0 size=N/A time=00:04:30.66 bitrate=N/A speed=18.7x    frame= 6740 fps=451 q=-0.0 size=N/A time=00:04:40.87 bitrate=N/A speed=18.8x    frame= 6990 fps=452 q=-0.0 size=N/A time=00:04:51.25 bitrate=N/A speed=18.8x    frame= 7149 fps=447 q=-0.0 size=N/A time=00:04:57.87 bitrate=N/A speed=18.6x    frame= 7396 fps=448 q=-0.0 size=N/A time=00:05:08.16 bitrate=N/A speed=18.7x    frame= 7657 fps=450 q=-0.0 size=N/A time=00:05:19.04 bitrate=N/A speed=18.7x    frame= 7893 fps=450 q=-0.0 size=N/A time=00:05:28.87 bitrate=N/A speed=18.8x    frame= 8165 fps=452 q=-0.0 size=N/A time=00:05:40.20 bitrate=N/A speed=18.8x    frame= 8424 fps=454 q=-0.0 size=N/A time=00:05:51.00 bitrate=N/A speed=18.9x    frame= 8680 fps=455 q=-0.0 size=N/A time=00:06:01.66 bitrate=N/A speed=18.9x    frame= 8912 fps=455 q=-0.0 size=N/A time=00:06:11.33 bitrate=N/A speed=18.9x    frame= 9108 fps=453 q=-0.0 size=N/A time=00:06:19.50 bitrate=N/A speed=18.9x    frame= 9319 fps=452 q=-0.0 size=N/A time=00:06:28.29 bitrate=N/A speed=18.8x    frame= 9561 fps=452 q=-0.0 size=N/A time=00:06:38.37 bitrate=N/A speed=18.8x    frame= 9783 fps=452 q=-0.0 size=N/A time=00:06:47.62 bitrate=N/A speed=18.8x    frame=10019 fps=452 q=-0.0 size=N/A time=00:06:57.45 bitrate=N/A speed=18.8x    frame=10278 fps=453 q=-0.0 size=N/A time=00:07:08.25 bitrate=N/A speed=18.9x    frame=10523 fps=454 q=-0.0 size=N/A time=00:07:18.45 bitrate=N/A speed=18.9x    frame=10790 fps=455 q=-0.0 size=N/A time=00:07:29.58 bitrate=N/A speed=18.9x    frame=11069 fps=457 q=-0.0 size=N/A time=00:07:41.20 bitrate=N/A speed=  19x    frame=11300 fps=456 q=-0.0 size=N/A time=00:07:50.83 bitrate=N/A speed=  19x    frame=11532 fps=456 q=-0.0 size=N/A time=00:08:00.50 bitrate=N/A speed=  19x    frame=11792 fps=457 q=-0.0 size=N/A time=00:08:11.33 bitrate=N/A speed=19.1x    frame=12023 fps=457 q=-0.0 size=N/A time=00:08:20.95 bitrate=N/A speed=  19x    frame=12291 fps=458 q=-0.0 size=N/A time=00:08:32.12 bitrate=N/A speed=19.1x    frame=12543 fps=459 q=-0.0 size=N/A time=00:08:42.62 bitrate=N/A speed=19.1x    frame=12798 fps=460 q=-0.0 size=N/A time=00:08:53.25 bitrate=N/A speed=19.2x    frame=13027 fps=459 q=-0.0 size=N/A time=00:09:02.79 bitrate=N/A speed=19.1x    frame=13260 fps=459 q=-0.0 size=N/A time=00:09:12.50 bitrate=N/A speed=19.1x    frame=13540 fps=461 q=-0.0 size=N/A time=00:09:24.16 bitrate=N/A speed=19.2x    frame=13810 fps=462 q=-0.0 size=N/A time=00:09:35.41 bitrate=N/A speed=19.2x    frame=14084 fps=463 q=-0.0 size=N/A time=00:09:46.83 bitrate=N/A speed=19.3x    frame=14353 fps=464 q=-0.0 size=N/A time=00:09:58.04 bitrate=N/A speed=19.3x    frame=14603 fps=464 q=-0.0 size=N/A time=00:10:08.45 bitrate=N/A speed=19.3x    frame=14880 fps=465 q=-0.0 size=N/A time=00:10:20.00 bitrate=N/A speed=19.4x    frame=15115 fps=465 q=-0.0 size=N/A time=00:10:29.79 bitrate=N/A speed=19.4x    frame=15355 fps=465 q=-0.0 size=N/A time=00:10:39.79 bitrate=N/A speed=19.4x    frame=15617 fps=466 q=-0.0 size=N/A time=00:10:50.70 bitrate=N/A speed=19.4x    frame=15859 fps=466 q=-0.0 size=N/A time=00:11:00.79 bitrate=N/A speed=19.4x    frame=16112 fps=466 q=-0.0 size=N/A time=00:11:11.33 bitrate=N/A speed=19.4x    frame=16348 fps=466 q=-0.0 size=N/A time=00:11:21.16 bitrate=N/A speed=19.4x    frame=16620 fps=467 q=-0.0 size=N/A time=00:11:32.50 bitrate=N/A speed=19.5x    frame=16894 fps=468 q=-0.0 size=N/A time=00:11:43.91 bitrate=N/A speed=19.5x    frame=17175 fps=469 q=-0.0 size=N/A time=00:11:55.62 bitrate=N/A speed=19.5x    frame=17427 fps=469 q=-0.0 size=N/A time=00:12:06.12 bitrate=N/A speed=19.6x    frame=17694 fps=470 q=-0.0 size=N/A time=00:12:17.25 bitrate=N/A speed=19.6x    frame=17952 fps=470 q=-0.0 size=N/A time=00:12:28.00 bitrate=N/A speed=19.6x    frame=18170 fps=470 q=-0.0 size=N/A time=00:12:37.08 bitrate=N/A speed=19.6x    frame=18363 fps=469 q=-0.0 size=N/A time=00:12:45.12 bitrate=N/A speed=19.5x    frame=18586 fps=468 q=-0.0 size=N/A time=00:12:54.41 bitrate=N/A speed=19.5x    frame=18867 fps=469 q=-0.0 size=N/A time=00:13:06.12 bitrate=N/A speed=19.5x    frame=19152 fps=470 q=-0.0 size=N/A time=00:13:18.00 bitrate=N/A speed=19.6x    frame=19408 fps=471 q=-0.0 size=N/A time=00:13:28.66 bitrate=N/A speed=19.6x    frame=19688 fps=471 q=-0.0 size=N/A time=00:13:40.33 bitrate=N/A speed=19.6x    frame=19958 fps=472 q=-0.0 size=N/A time=00:13:51.58 bitrate=N/A speed=19.7x    frame=20180 fps=472 q=-0.0 size=N/A time=00:14:00.83 bitrate=N/A speed=19.6x    frame=20443 fps=472 q=-0.0 size=N/A time=00:14:11.79 bitrate=N/A speed=19.7x    frame=20718 fps=473 q=-0.0 size=N/A time=00:14:23.25 bitrate=N/A speed=19.7x    frame=20983 fps=473 q=-0.0 size=N/A time=00:14:34.29 bitrate=N/A speed=19.7x    frame=21228 fps=473 q=-0.0 size=N/A time=00:14:44.50 bitrate=N/A speed=19.7x    frame=21478 fps=473 q=-0.0 size=N/A time=00:14:54.91 bitrate=N/A speed=19.7x    frame=21727 fps=473 q=-0.0 size=N/A time=00:15:05.29 bitrate=N/A speed=19.7x    frame=22002 fps=474 q=-0.0 size=N/A time=00:15:16.75 bitrate=N/A speed=19.8x    frame=22272 fps=475 q=-0.0 size=N/A time=00:15:28.00 bitrate=N/A speed=19.8x    frame=22542 fps=475 q=-0.0 size=N/A time=00:15:39.25 bitrate=N/A speed=19.8x    frame=22821 fps=476 q=-0.0 size=N/A time=00:15:50.87 bitrate=N/A speed=19.8x    frame=23074 fps=476 q=-0.0 size=N/A time=00:16:01.41 bitrate=N/A speed=19.8x    frame=23338 fps=476 q=-0.0 size=N/A time=00:16:12.41 bitrate=N/A speed=19.8x    frame=23596 fps=477 q=-0.0 size=N/A time=00:16:23.16 bitrate=N/A speed=19.9x    frame=23832 fps=476 q=-0.0 size=N/A time=00:16:33.00 bitrate=N/A speed=19.9x    frame=24104 fps=477 q=-0.0 size=N/A time=00:16:44.33 bitrate=N/A speed=19.9x    frame=24358 fps=477 q=-0.0 size=N/A time=00:16:54.91 bitrate=N/A speed=19.9x    frame=24628 fps=478 q=-0.0 size=N/A time=00:17:06.16 bitrate=N/A speed=19.9x    frame=24852 fps=477 q=-0.0 size=N/A time=00:17:15.50 bitrate=N/A speed=19.9x    frame=25094 fps=477 q=-0.0 size=N/A time=00:17:25.58 bitrate=N/A speed=19.9x    frame=25363 fps=477 q=-0.0 size=N/A time=00:17:36.79 bitrate=N/A speed=19.9x    frame=25622 fps=478 q=-0.0 size=N/A time=00:17:47.58 bitrate=N/A speed=19.9x    frame=25890 fps=478 q=-0.0 size=N/A time=00:17:58.75 bitrate=N/A speed=19.9x    frame=26113 fps=478 q=-0.0 size=N/A time=00:18:08.04 bitrate=N/A speed=19.9x    frame=26358 fps=478 q=-0.0 size=N/A time=00:18:18.25 bitrate=N/A speed=19.9x    frame=26597 fps=478 q=-0.0 size=N/A time=00:18:28.20 bitrate=N/A speed=19.9x    frame=26846 fps=478 q=-0.0 size=N/A time=00:18:38.58 bitrate=N/A speed=19.9x    frame=27117 fps=478 q=-0.0 size=N/A time=00:18:49.87 bitrate=N/A speed=19.9x    frame=27388 fps=479 q=-0.0 size=N/A time=00:19:01.16 bitrate=N/A speed=19.9x    frame=27656 fps=479 q=-0.0 size=N/A time=00:19:12.33 bitrate=N/A speed=  20x    frame=27926 fps=479 q=-0.0 size=N/A time=00:19:23.58 bitrate=N/A speed=  20x    frame=28180 fps=479 q=-0.0 size=N/A time=00:19:34.16 bitrate=N/A speed=  20x    frame=28434 fps=480 q=-0.0 size=N/A time=00:19:44.75 bitrate=N/A speed=  20x    frame=28663 fps=479 q=-0.0 size=N/A time=00:19:54.29 bitrate=N/A speed=  20x    frame=28888 fps=479 q=-0.0 size=N/A time=00:20:03.66 bitrate=N/A speed=  20x    frame=29124 fps=479 q=-0.0 size=N/A time=00:20:13.50 bitrate=N/A speed=19.9x    frame=29399 fps=479 q=-0.0 size=N/A time=00:20:24.95 bitrate=N/A speed=  20x    frame=29641 fps=479 q=-0.0 size=N/A time=00:20:35.04 bitrate=N/A speed=  20x    frame=29906 fps=479 q=-0.0 size=N/A time=00:20:46.08 bitrate=N/A speed=  20x    frame=30158 fps=479 q=-0.0 size=N/A time=00:20:56.58 bitrate=N/A speed=  20x    frame=30405 fps=479 q=-0.0 size=N/A time=00:21:06.87 bitrate=N/A speed=  20x    frame=30656 fps=479 q=-0.0 size=N/A time=00:21:17.33 bitrate=N/A speed=  20x    frame=30908 fps=480 q=-0.0 size=N/A time=00:21:27.83 bitrate=N/A speed=  20x    frame=31168 fps=480 q=-0.0 size=N/A time=00:21:38.66 bitrate=N/A speed=  20x    frame=31409 fps=480 q=-0.0 size=N/A time=00:21:48.70 bitrate=N/A speed=  20x    frame=31639 fps=479 q=-0.0 size=N/A time=00:21:58.29 bitrate=N/A speed=  20x    frame=31879 fps=479 q=-0.0 size=N/A time=00:22:08.29 bitrate=N/A speed=  20x    frame=32143 fps=480 q=-0.0 size=N/A time=00:22:19.29 bitrate=N/A speed=  20x    frame=32394 fps=480 q=-0.0 size=N/A time=00:22:29.75 bitrate=N/A speed=  20x    frame=32624 fps=479 q=-0.0 size=N/A time=00:22:39.33 bitrate=N/A speed=  20x    frame=32851 fps=479 q=-0.0 size=N/A time=00:22:48.79 bitrate=N/A speed=  20x    frame=33106 fps=479 q=-0.0 size=N/A time=00:22:59.41 bitrate=N/A speed=  20x    frame=33320 fps=479 q=-0.0 size=N/A time=00:23:08.33 bitrate=N/A speed=19.9x    frame=33568 fps=479 q=-0.0 size=N/A time=00:23:18.66 bitrate=N/A speed=19.9x    frame=33800 fps=478 q=-0.0 size=N/A time=00:23:28.33 bitrate=N/A speed=19.9x    frame=34006 fps=478 q=-0.0 size=N/A time=00:23:36.91 bitrate=N/A speed=19.9x    frame=34246 fps=478 q=-0.0 size=N/A time=00:23:46.91 bitrate=N/A speed=19.9x    frame=34470 fps=478 q=-0.0 size=N/A time=00:23:56.25 bitrate=N/A speed=19.9x    frame=34686 fps=477 q=-0.0 size=N/A time=00:24:05.25 bitrate=N/A speed=19.9x    [Parsed_ssim_10 @ 000001fc2ad26f80] SSIM Y:0.993131 (21.631325) U:0.993328 (21.757393) V:0.993170 (21.656090) All:0.993171 (21.656221)
[out#0/null @ 000001fc1dc64a40] video:14943KiB audio:271716KiB subtitle:0KiB other streams:0KiB global headers:0KiB muxing overhead: unknown
frame=34776 fps=477 q=-0.0 Lsize=N/A time=00:24:09.00 bitrate=N/A speed=19.9x    
